<svg width="26" height="26" viewBox="0 0 26 26" fill="none" xmlns="http://www.w3.org/2000/svg">
<path d="M20.1002 15.9295C19.7894 16.2466 19.6466 16.7051 19.7174 17.1547L20.7841 23.369C20.8741 23.8957 20.6629 24.4288 20.2441 24.7332C19.8338 25.0489 19.2879 25.0868 18.8403 24.8342L13.5262 21.9165C13.3414 21.8129 13.1363 21.7574 12.9263 21.751H12.6011C12.4884 21.7687 12.378 21.8066 12.2772 21.8647L6.96187 24.7963C6.69911 24.9352 6.40155 24.9845 6.10998 24.9352C5.39968 24.7938 4.92574 24.0814 5.04212 23.3299L6.10998 17.1156C6.18077 16.6621 6.03799 16.2011 5.72723 15.879L1.3946 11.4582C1.03225 11.0882 0.906263 10.5324 1.07184 10.031C1.23262 9.5308 1.64297 9.16577 2.1385 9.08367L8.10172 8.17299C8.55526 8.12373 8.95361 7.83323 9.15759 7.40378L11.7852 1.73258C11.8476 1.60628 11.928 1.49007 12.0252 1.39155L12.1332 1.30314C12.1896 1.23746 12.2544 1.18315 12.3264 1.13894L12.4572 1.08842L12.6611 1H13.1663C13.6174 1.04926 14.0146 1.33345 14.2221 1.75784L16.8846 7.40378C17.0766 7.81681 17.4497 8.10353 17.8804 8.17299L23.8437 9.08367C24.3476 9.15946 24.7687 9.52575 24.9355 10.031C25.0927 10.5375 24.9571 11.0932 24.5876 11.4582L20.1002 15.9295Z" stroke="#000D09" stroke-width="1.5"/>
</svg>
