<svg width="17" height="21" viewBox="0 0 17 21" fill="none" xmlns="http://www.w3.org/2000/svg">
<path d="M10.9202 10.08V10.0783L10.9315 3.93601C10.9315 3.93568 10.9315 3.93534 10.9315 3.93501C10.9311 3.22787 10.5205 2.5485 9.8481 2.1466C10.3678 2.52552 10.723 3.11812 10.723 3.83361V3.83524L10.7117 10.1824C10.7117 10.1828 10.7117 10.1833 10.7117 10.1837L10.7117 10.184L9.79974 10.1824C9.79974 10.8583 9.2013 11.4112 8.45606 11.4112C7.71083 11.4112 7.10109 10.8583 7.10109 10.1824V3.83361C7.10109 3.15777 7.71083 2.60481 8.45606 2.60481C9.2013 2.60481 9.81103 3.15777 9.81103 3.83361L10.9202 10.08ZM10.9202 10.08C10.9202 10.7905 10.5116 11.4703 9.84104 11.8715L10.9202 10.08ZM6.18909 10.1824C6.18909 10.8979 6.54431 11.4905 7.06402 11.8694C6.39133 11.4673 5.98063 10.7875 5.98063 10.08V3.93601C5.98063 3.22851 6.39133 2.54869 7.06402 2.1466C6.54431 2.52552 6.18909 3.11812 6.18909 3.83361V10.1824ZM8.23892 16.9613V16.2113C8.31127 16.2134 8.38366 16.2144 8.45606 16.2144C8.52846 16.2144 8.60085 16.2134 8.67321 16.2113V16.9613V19.408H8.23892V16.9613ZM1.63068 10.992C1.73627 11.6573 1.95601 12.2716 2.2663 12.8273C1.91637 12.2568 1.66996 11.6379 1.54908 10.992H1.63068ZM15.2814 10.992H15.3636C15.2377 11.6687 14.9749 12.3153 14.6002 12.9075C14.9346 12.3308 15.1708 11.6894 15.2814 10.992Z" stroke="black" stroke-width="1.824"/>
</svg>
